<svg xmlns="http://www.w3.org/2000/svg" version="1.0" width="512.000000pt" height="512.000000pt" viewBox="0 0 512.000000 512.000000" preserveAspectRatio="xMidYMid meet">

<g transform="translate(0.000000,512.000000) scale(0.100000,-0.100000)" fill="#ffffff" stroke="none">
<path d="M2405 4290 l-830 -830 513 0 c403 0 512 -3 512 -12 0 -7 -9 -83 -20 -168 -160 -1249 -768 -2327 -1585 -2815 -176 -105 -308 -158 -625 -251 -80 -23 -138 -45 -130 -48 49 -18 389 -109 469 -126 224 -45 486 -51 701 -15 797 131 1497 716 1959 1635 248 495 407 1034 481 1629 11 91 20 166 20 168 0 1 230 4 510 5 l510 3 -827 828 -828 827 -830 -830z m1440 -40 l600 -600 -375 -2 -375 -3 -12 -145 c-113 -1309 -686 -2434 -1518 -2980 -263 -172 -559 -282 -865 -319 -93 -12 -309 -15 -359 -5 -30 6 -27 9 83 70 63 34 150 86 193 115 852 574 1440 1712 1568 3034 8 88 17 177 20 198 l5 37 -387 0 -388 0 600 600 c330 330 602 600 605 600 3 0 275 -270 605 -600z" fill="#ffffff"/>
</g>
</svg>