<svg xmlns="http://www.w3.org/2000/svg" version="1.0" width="512.000000pt" height="512.000000pt" viewBox="0 0 512.000000 512.000000" preserveAspectRatio="xMidYMid meet">

<g transform="translate(0.000000,512.000000) scale(0.100000,-0.100000)" fill="#ffffff" stroke="none">
<path d="M3895 4595 c-29 -29 -35 -43 -35 -76 0 -49 22 -90 60 -113 25 -14 76 -16 427 -16 377 0 400 1 430 20 34 21 63 66 63 100 0 30 -25 75 -56 99 -26 21 -36 21 -440 21 l-413 0 -36 -35z" fill="#ffffff"/>
<path d="M2636 3999 c-86 -13 -197 -45 -271 -78 -134 -61 -288 -187 -378 -310 l-43 -58 -40 34 c-85 74 -234 140 -369 164 -85 15 -267 6 -350 -16 -93 -25 -216 -89 -297 -153 -386 -307 -413 -886 -56 -1229 l65 -62 -76 -31 c-443 -184 -740 -582 -807 -1080 -19 -148 -18 -208 6 -247 39 -64 29 -63 557 -63 465 0 479 1 517 21 l39 20 -7 -23 c-3 -13 -12 -84 -18 -158 -10 -121 -10 -139 5 -170 34 -71 121 -92 183 -45 39 30 54 74 54 165 1 153 61 392 136 542 205 410 560 685 1005 779 149 32 400 32 549 0 322 -68 590 -223 797 -462 203 -233 317 -506 343 -824 6 -71 16 -142 22 -158 16 -41 59 -67 112 -67 39 0 50 5 82 37 l37 36 -6 131 c-3 72 -9 141 -13 154 l-6 22 308 0 c289 0 311 1 341 20 54 33 67 70 60 181 -28 458 -269 851 -669 1089 -54 31 -125 68 -158 80 l-61 23 74 76 c86 90 104 114 150 207 191 384 30 855 -371 1085 -167 95 -400 146 -481 105 -31 -16 -61 -56 -61 -81 0 -24 -8 -19 -63 42 -207 226 -540 346 -841 302z m288 -254 c38 -8 112 -35 164 -61 80 -39 109 -60 181 -132 128 -130 188 -247 212 -418 33 -236 -73 -502 -259 -649 -67 -54 -214 -128 -292 -146 -90 -22 -261 -17 -355 9 -255 73 -449 276 -510 534 -19 80 -19 233 0 322 19 88 81 215 142 291 170 209 450 307 717 250z m-1409 -240 c88 -19 193 -71 267 -132 49 -41 57 -52 52 -73 -21 -89 -33 -186 -34 -258 0 -98 30 -259 65 -345 l25 -60 -46 -53 c-129 -151 -290 -222 -479 -211 -107 7 -192 34 -272 87 -174 114 -266 282 -266 485 0 160 52 283 168 401 139 141 329 199 520 159z m2290 -22 c197 -49 387 -223 456 -419 29 -80 35 -201 15 -285 -50 -216 -189 -354 -424 -424 -106 -31 -145 -98 -107 -179 21 -45 56 -62 161 -80 448 -77 795 -371 918 -776 14 -47 30 -111 34 -143 l9 -57 -257 0 -257 0 -18 48 c-134 363 -375 658 -708 864 -89 56 -144 82 -284 137 l-93 37 63 41 c132 87 260 240 333 398 63 137 78 209 78 395 1 181 -12 249 -75 391 -16 37 -29 70 -29 74 0 9 115 -5 185 -22z m-1582 -1238 c31 -21 56 -39 54 -41 -1 -2 -39 -16 -84 -33 -62 -23 -84 -27 -91 -18 -6 7 -60 36 -120 66 l-109 54 58 48 c32 27 66 60 76 73 l18 24 70 -67 c39 -37 96 -85 128 -106z m-633 -140 c66 -16 138 -41 222 -77 l48 -20 -86 -65 c-280 -212 -482 -491 -587 -813 l-33 -100 -23 31 c-43 58 -52 59 -486 59 -373 0 -396 1 -392 18 3 9 8 39 12 67 12 85 54 214 101 309 145 289 407 499 722 576 106 26 117 27 287 28 103 1 170 -3 215 -13z" fill="#ffffff"/>
</g>
</svg>