<svg xmlns="http://www.w3.org/2000/svg" version="1.0" width="352.000000pt" height="351.000000pt" viewBox="0 0 352.000000 351.000000" preserveAspectRatio="xMidYMid meet">

<g transform="translate(0.000000,351.000000) scale(0.100000,-0.100000)" fill="#ffffff" stroke="none">
<path d="M1235 3440 c-3 -5 -17 -10 -30 -10 -26 0 -98 -33 -128 -58 -9 -8 -27 -20 -39 -26 -13 -6 -28 -22 -34 -34 -6 -13 -20 -33 -31 -45 -29 -32 -53 -86 -60 -134 -3 -24 -10 -43 -14 -43 -12 0 -12 -247 0 -254 5 -4 12 -29 16 -57 18 -126 151 -312 263 -365 28 -13 52 -28 52 -33 0 -5 -54 -12 -120 -16 -66 -4 -123 -11 -126 -16 -3 -5 -20 -9 -39 -9 -19 0 -36 -4 -39 -9 -3 -4 -29 -11 -58 -15 -29 -4 -57 -11 -63 -15 -5 -5 -26 -11 -45 -15 -44 -8 -173 -72 -196 -97 -9 -10 -21 -19 -25 -19 -11 0 -69 -57 -69 -68 0 -5 -6 -15 -14 -21 -8 -7 -18 -27 -22 -44 -3 -17 -10 -38 -14 -47 -22 -45 -25 -113 -20 -528 l5 -452 29 -15 c24 -13 112 -15 586 -15 l558 0 26 -31 c15 -18 26 -43 26 -60 0 -34 14 -62 54 -107 23 -25 27 -35 18 -44 -7 -7 -12 -19 -12 -28 0 -9 -25 -65 -55 -125 -30 -60 -57 -121 -60 -137 -4 -15 -10 -28 -15 -28 -5 0 -11 -13 -15 -30 -4 -16 -11 -30 -15 -30 -5 0 -12 -16 -16 -35 -5 -27 -2 -41 11 -55 18 -20 74 -28 89 -13 9 10 188 33 199 26 5 -3 12 -15 17 -26 6 -12 21 -40 35 -62 14 -22 30 -51 36 -65 16 -38 50 -70 74 -70 27 0 60 36 69 75 4 16 11 32 14 35 9 7 72 135 72 146 0 5 21 52 48 104 57 113 104 149 160 121 38 -20 68 -30 92 -33 19 -2 26 -10 28 -31 2 -15 7 -27 12 -27 5 0 11 -14 15 -30 4 -17 11 -30 16 -30 5 0 9 -9 9 -21 0 -11 11 -40 24 -64 14 -24 22 -45 20 -48 -6 -6 31 -74 54 -99 8 -10 23 -18 32 -18 18 0 70 50 70 68 0 7 4 12 9 12 5 0 11 8 15 18 5 17 11 26 54 94 24 36 26 37 71 31 25 -3 51 -10 58 -15 6 -5 50 -12 97 -15 76 -5 86 -4 86 11 0 9 5 16 10 16 6 0 10 7 10 15 0 8 -4 15 -9 15 -5 0 -12 14 -16 31 -4 17 -17 52 -30 78 -36 72 -55 118 -55 130 0 6 -4 11 -10 11 -5 0 -10 9 -10 21 0 11 -11 39 -23 62 -25 45 -25 58 4 96 12 14 19 40 19 65 0 37 6 48 55 96 30 30 55 60 55 67 0 7 5 13 10 13 6 0 10 20 10 44 0 25 -4 48 -10 51 -15 9 -12 71 4 84 31 26 63 116 44 127 -4 3 -8 14 -8 25 0 11 -11 35 -25 53 -25 33 -34 89 -15 101 14 9 12 71 -2 98 -20 34 -60 77 -74 77 -19 0 -44 58 -44 101 0 42 -36 94 -73 104 -52 15 -87 38 -116 74 -17 21 -31 44 -31 50 0 21 -64 44 -122 44 -37 -1 -61 4 -69 13 -6 8 -16 14 -21 14 -6 0 -26 14 -46 31 -34 30 -38 31 -96 25 -34 -3 -62 -11 -64 -16 -4 -12 -69 -13 -76 -1 -3 5 -21 12 -40 15 -19 4 -40 13 -47 22 -14 18 -142 80 -184 90 -16 4 -34 10 -40 14 -5 5 -36 11 -68 15 -31 4 -60 11 -63 16 -3 5 -24 9 -48 9 -23 0 -46 4 -52 9 -5 6 -62 13 -126 17 -65 4 -118 11 -118 15 0 5 5 9 11 9 32 0 111 51 172 109 37 36 67 70 67 75 0 5 11 23 24 40 13 17 27 46 30 63 4 18 12 35 17 38 5 4 9 19 9 35 0 16 4 31 9 34 5 3 7 15 4 25 -3 10 0 22 6 25 15 10 15 252 0 262 -6 3 -9 15 -6 25 3 10 1 22 -4 25 -5 3 -9 16 -9 30 0 13 -4 24 -9 24 -5 0 -12 12 -16 27 -3 15 -16 36 -29 48 -12 11 -25 28 -29 38 -3 9 -18 22 -32 27 -14 5 -25 13 -25 18 0 14 -117 72 -145 72 -13 0 -27 5 -30 10 -4 6 -57 10 -125 10 -68 0 -121 -4 -125 -10z m250 -110 c6 -4 23 -10 39 -14 49 -12 129 -78 141 -118 4 -12 16 -35 27 -50 11 -16 17 -32 13 -37 -3 -5 -1 -12 5 -16 14 -8 13 -252 0 -260 -6 -4 -8 -15 -5 -25 3 -10 1 -21 -5 -25 -5 -3 -10 -14 -10 -24 0 -22 -45 -109 -71 -137 -10 -11 -19 -25 -19 -31 0 -12 -31 -41 -63 -59 -63 -36 -103 -54 -119 -54 -10 0 -27 -6 -38 -12 -16 -10 -24 -10 -40 0 -11 6 -27 12 -37 12 -16 0 -68 24 -128 59 -16 10 -35 27 -41 40 -6 12 -21 32 -33 45 -11 12 -21 28 -21 34 0 7 -4 12 -9 12 -5 0 -12 14 -16 30 -4 17 -10 30 -15 30 -4 0 -11 22 -15 50 -4 27 -11 52 -16 56 -13 7 -12 254 1 254 6 0 10 9 10 19 0 64 109 193 175 207 16 3 35 10 40 14 23 18 225 18 250 0z m-31 -1058 c3 -5 65 -12 137 -16 73 -3 137 -10 143 -15 6 -5 39 -12 74 -16 34 -4 65 -11 68 -16 3 -5 16 -9 30 -9 13 0 32 -4 42 -9 9 -5 36 -17 59 -27 24 -11 43 -23 43 -29 0 -23 -62 -45 -125 -45 -58 0 -65 -2 -88 -30 -14 -16 -29 -39 -32 -51 -12 -37 -54 -68 -115 -85 -14 -3 -31 -11 -37 -16 -19 -15 -43 -68 -43 -95 0 -36 -23 -74 -71 -117 l-44 -39 0 -92 c0 -51 -5 -98 -10 -106 -53 -74 -57 -119 -15 -195 29 -50 30 -59 23 -112 l-8 -57 -288 -3 -287 -2 0 307 c0 301 0 307 -22 330 -26 28 -42 29 -68 5 -19 -17 -20 -36 -22 -328 l-3 -309 -155 0 -155 0 -3 415 c-2 408 -1 429 29 480 5 8 13 24 18 35 11 24 60 72 93 91 62 35 101 53 128 59 17 4 30 11 30 16 0 5 13 9 29 9 17 0 32 4 35 9 3 5 34 12 68 16 35 4 68 11 73 16 6 4 70 11 143 15 73 4 135 11 138 16 7 11 181 11 188 0z m772 -217 c25 -19 94 -19 130 0 45 23 75 18 111 -17 31 -30 40 -33 108 -36 80 -4 94 -13 132 -82 19 -34 83 -76 126 -82 16 -2 23 -11 25 -30 2 -16 7 -28 11 -28 5 0 11 -19 14 -41 4 -33 16 -53 56 -93 49 -49 64 -87 41 -101 -13 -8 -13 -82 -1 -90 5 -3 12 -19 16 -35 4 -17 10 -30 13 -30 4 0 13 -9 20 -21 12 -18 10 -26 -10 -57 -13 -21 -29 -47 -36 -59 -15 -27 -16 -89 -2 -98 15 -9 13 -75 -3 -75 -7 0 -30 -17 -51 -39 -28 -28 -39 -50 -43 -82 -11 -76 -36 -105 -109 -123 -41 -11 -51 -22 -79 -83 l-25 -53 -60 0 c-70 0 -138 -26 -168 -64 -21 -28 -42 -26 -100 6 -18 10 -42 18 -52 18 -20 0 -28 -3 -88 -35 -33 -17 -34 -17 -61 9 -15 14 -31 26 -35 26 -4 0 -19 9 -33 20 -20 15 -41 20 -92 20 l-66 0 -19 40 c-11 22 -23 40 -28 40 -4 0 -8 6 -8 14 0 7 -8 16 -17 20 -10 3 -25 9 -33 14 -37 22 -61 32 -74 32 -16 0 -29 34 -26 72 1 14 -3 29 -9 33 -6 3 -11 14 -11 24 0 19 -49 71 -68 71 -17 0 -22 33 -19 122 2 69 0 79 -23 103 -34 36 -34 94 0 130 23 25 25 33 22 111 l-2 84 41 37 c49 44 71 85 67 123 -3 29 24 70 47 70 25 0 98 43 102 60 3 10 11 21 19 24 8 3 14 11 14 18 0 6 10 22 22 35 18 20 31 23 90 23 52 0 70 4 74 15 4 8 12 15 19 15 6 0 20 9 30 20 22 24 73 26 101 5z m618 -1359 c9 -19 16 -39 16 -44 0 -6 11 -32 24 -59 36 -74 56 -120 56 -132 0 -13 -32 -15 -45 -2 -6 5 -42 13 -81 16 l-71 7 -34 -45 c-19 -25 -42 -59 -51 -76 -22 -40 -44 -40 -53 0 -4 17 -17 52 -30 78 -54 111 -55 114 -38 133 12 14 32 18 85 18 39 0 68 4 68 10 0 6 6 10 14 10 17 0 76 65 76 83 0 16 20 37 36 37 6 0 19 -15 28 -34z m-1022 -35 c34 -50 73 -69 144 -70 55 -1 63 -4 93 -35 l32 -33 -46 -99 c-26 -55 -56 -118 -67 -142 -11 -24 -25 -41 -31 -39 -7 2 -22 23 -35 48 -13 24 -30 51 -38 60 -8 8 -14 20 -14 25 0 17 -60 38 -73 25 -6 -6 -26 -11 -43 -11 -18 0 -36 -4 -39 -10 -8 -12 -52 -13 -59 -1 -3 5 4 31 17 58 13 26 38 78 55 114 18 36 32 71 32 78 0 6 4 11 9 11 5 0 12 14 16 31 8 36 17 35 47 -10z" fill="#ffffff"/>
<path d="M2175 1834 c-65 -17 -191 -91 -241 -141 -30 -30 -54 -60 -54 -65 0 -5 -11 -24 -25 -42 -14 -18 -25 -42 -25 -53 0 -11 -3 -23 -7 -27 -4 -3 -9 -14 -12 -24 -8 -31 -12 -234 -5 -251 4 -9 6 -20 5 -25 -3 -14 59 -133 80 -152 10 -9 19 -22 19 -28 1 -6 12 -20 27 -31 14 -11 39 -32 57 -46 17 -14 58 -38 90 -55 58 -28 63 -29 218 -29 106 0 161 4 166 11 4 6 18 15 32 19 14 4 45 24 70 45 25 20 53 40 63 43 9 4 20 15 24 24 4 10 23 38 44 63 20 25 40 60 44 77 3 18 11 35 16 38 5 4 9 19 9 34 0 15 3 30 6 34 3 3 6 47 6 97 0 50 -3 94 -6 97 -3 4 -6 15 -6 26 0 11 -16 52 -35 92 -40 84 -161 208 -214 220 -17 4 -31 10 -31 13 0 4 -12 13 -28 21 -27 13 -248 25 -287 15z m290 -139 c28 -15 52 -31 55 -34 3 -4 17 -14 33 -24 15 -10 27 -22 27 -28 0 -5 11 -20 24 -32 14 -13 28 -35 31 -50 4 -15 11 -27 16 -27 5 0 9 -11 9 -24 0 -14 5 -28 10 -31 6 -3 10 -46 10 -95 0 -49 -4 -92 -10 -95 -5 -3 -10 -13 -10 -22 0 -58 -127 -213 -187 -228 -15 -3 -31 -11 -34 -17 -4 -6 -27 -13 -53 -15 -26 -3 -49 -10 -52 -14 -7 -12 -71 -12 -78 0 -3 4 -31 11 -61 14 -39 4 -67 14 -90 31 -19 14 -38 26 -42 26 -11 0 -93 83 -93 94 0 4 -12 22 -26 41 -17 23 -27 51 -31 90 -3 30 -10 58 -14 61 -12 7 -11 51 1 59 6 3 10 24 10 46 0 38 33 112 66 150 8 8 14 19 14 24 0 13 42 55 56 55 6 0 17 6 23 13 10 12 74 47 111 61 8 3 65 4 125 3 100 -3 115 -6 160 -32z" fill="#ffffff"/>
</g>
</svg>